<svg width="52" height="53" viewBox="0 0 52 53" xmlns="http://www.w3.org/2000/svg">
  <g fill="none" fill-rule="evenodd">
    <path d="M34.9406486 40c-.58593 0-1.0614673.4381061-1.0614673.9779154v8.1861299h-3.7151356c-.4755373 0-1.004148.2043843-1.133647.6268438-.129499.4214815.1857567 1.0131204.3630218 1.0131204-.0424587.1721131-.0350284.3559612.0307825.5339418v.0009779c.0074303.0195583.0148606.0381387.0233523.0567191.1029623.2298101.2897806.403879.5158731.5055822.0668725.0303154.1369293.0537854.2080476.069432.0838559.0195583.1698348.0293375.2568751.0293375.1082697 0 .2176008-.0156466.324809-.0469399.0222908-.0068454.0456431-.0146688.0679339-.0224921 1.9212558-.6835629 3.6801071-.0166246 3.6917832-.0127129.3279934.1320186.7069373.1026811 1.006271-.0772553.2993338-.1799364.4808447-.4889577.4808447-.8185152V40.9788933C36.0021159 40.4381061 35.5265785 40 34.9406486 40zM23.9406486 40c-.58593 0-1.0614673.4381061-1.0614673.9779154v8.1861299h-3.7151356c-.4755373 0-1.004148.2043843-1.133647.6268438-.129499.4214815.1857567 1.0131204.3630218 1.0131204-.0424587.1721131-.0350284.3559612.0307825.5339418v.0009779c.0074303.0195583.0148606.0381387.0233523.0567191.1029623.2298101.2897806.403879.5158731.5055822.0668725.0303154.1369293.0537854.2080476.069432.0838559.0195583.1698348.0293375.2568751.0293375.1082697 0 .2176008-.0156466.324809-.0469399.0222908-.0068454.0456431-.0146688.0679339-.0224921 1.9212558-.6835629 3.6801071-.0166246 3.6917832-.0127129.3279934.1320186.7069373.1026811 1.006271-.0772553.2993338-.1799364.4808447-.4889577.4808447-.8185152V40.9788933C25.0021159 40.4381061 24.5265785 40 23.9406486 40z" fill="#000" fill-rule="nonzero"/>
    <path d="M10 19H4.01932933v.5130543S3.34243126 23.8135898 10 22.8627291" stroke="#000" stroke-width="1.8" fill="rgb(255, 255, 165)" stroke-linecap="round" stroke-linejoin="round"/>
    <path d="M10 20H1c0-3.4969112 1.95015259-4.314456 9-3.9024134" stroke="#000" stroke-width="1.8" fill="rgb(255, 255, 165)" stroke-linecap="round" stroke-linejoin="round"/>
    <path d="M51 27.8420227v-4.1818916c0-4.5160817-2.4121756-4.6415284-3.9500998-4.6415284h-9.0239521c-4.491018 0-4.1536926-5.0158613-4.1536926-5.0158613C33.8722555 7.37313357 28.5279441 2 21.9361277 2 15.3433134 2 10 7.37413714 10 14.0027414v16.994517c0 6.6296078 5.3443114 12.0027414 11.9361277 12.0027414h12.4730539C38.2025948 43.0010033 51 39.6761637 51 27.8420227z" stroke="rgb(255, 255, 165)" stroke-width="2" fill="rgb(255, 255, 165)"/>
    <path d="M33 25h9.987655s.5078641 5.5443126-4.9912882 5.7053388c0 0-1.1030807 2.8126539-4.2345707 2.2100112" stroke="#000" stroke-width="2" stroke-linecap="round" stroke-linejoin="round"/>
    <circle fill="#000" fill-rule="nonzero" cx="16.5" cy="14.5" r="1.5"/>
  </g>
 </svg>